<svg id="レイヤー_1" data-name="レイヤー 1" xmlns="http://www.w3.org/2000/svg" viewBox="0 0 200 200"><defs><style>.cls-1{fill:#f6fffd;}.cls-2{fill:none;stroke:#f6fffd;stroke-miterlimit:10;stroke-width:20px;}</style></defs><g id="アスペクト"><path class="cls-1" d="M122.48,20.5h.66c31.44.37,56.72,26.68,56.36,58.66a58.17,58.17,0,0,1-17,40.69,56.15,56.15,0,0,1-39.95,16.65h-.66c-31.44-.37-56.71-26.68-56.36-58.66a58.17,58.17,0,0,1,17-40.69,56.15,56.15,0,0,1,40-16.65m0-20C80.37.5,46,34.84,45.51,77.61,45,120.69,79.1,156,121.63,156.5h.89c42.11,0,76.5-34.34,77-77.11C200,36.31,165.9,1,123.38.51Z"/><line class="cls-2" x1="7.5" y1="190.5" x2="78.55" y2="119.53"/></g></svg>