<svg id="レイヤー_1" data-name="レイヤー 1" xmlns="http://www.w3.org/2000/svg" viewBox="0 0 200 200"><defs><style>.cls-1{fill:#eae9a5;}</style></defs><title>アートボード 2</title><path class="cls-1" d="M100,2A98,98,0,0,0,7.5,67.58c.17-.24.33-.48.51-.72s.39-.53.59-.79.45-.61.69-.91.42-.53.63-.79l.71-.87c.22-.27.45-.53.68-.79s.47-.56.72-.84.48-.51.72-.77l.74-.81.75-.76c.26-.26.51-.53.78-.79s.52-.49.78-.74l.79-.76.82-.72.82-.73c.27-.24.55-.47.83-.7l.86-.71c.28-.23.57-.45.86-.67l.87-.68c.3-.23.6-.44.9-.66l.89-.64.93-.64.9-.61,1-.6c.31-.2.61-.4.93-.59l1-.57.95-.56,1-.54,1-.52,1-.51,1-.49c.34-.17.69-.32,1-.48l1-.46,1-.43,1-.43,1.07-.4c.35-.13.7-.27,1.06-.39s.72-.25,1.08-.37l1.07-.35c.37-.12.73-.22,1.09-.32l1.11-.32,1.1-.29,1.12-.28L47,41.34l1.14-.24,1.12-.2,1.15-.19,1.14-.16,1.17-.15,1.14-.12,1.19-.11,1.16-.06L57.41,40l1.16,0,1,0H60a60.11,60.11,0,0,1,8.89.73c2,.3,3.91.7,5.83,1.18,1,.25,1.93.51,2.88.8a67,67,0,0,1,16.28,7.45c.85.53,1.68,1.08,2.5,1.65,1.64,1.14,3.23,2.36,4.77,3.64s3,2.64,4.41,4.07,2.76,2.9,4,4.45a61.09,61.09,0,0,1,6.68,10,58.75,58.75,0,0,1,2.56,5.51A57.11,57.11,0,0,1,123,101a58.44,58.44,0,0,1-.33,6.24,59.49,59.49,0,0,1-2.5,11.9,60.25,60.25,0,0,1-3.38,8.31q-1.33,2.65-2.91,5.18c-.53.84-1.07,1.66-1.64,2.48a61.73,61.73,0,0,1-7.69,9c-1.43,1.38-2.92,2.7-4.48,3.94s-3.17,2.42-4.85,3.51c-.83.55-1.69,1.08-2.55,1.59q-2.6,1.53-5.36,2.81c-1.83.86-3.72,1.63-5.65,2.32s-3.9,1.28-5.92,1.78A65.18,65.18,0,0,1,60,162a59.17,59.17,0,0,1-7.34-.45c-1.61-.19-3.19-.45-4.75-.76a66.8,66.8,0,0,1-36.45-21.31q-1.26-1.42-2.4-2.91A98,98,0,1,0,100,2Z"/></svg>