<svg id="レイヤー_1" data-name="レイヤー 1" xmlns="http://www.w3.org/2000/svg" viewBox="0 0 200 200"><defs><style>.cls-1{fill:#f7cb86;}.cls-2{fill:none;stroke:#ead5b9;stroke-miterlimit:10;stroke-width:20px;}</style></defs><title>アートボード 5</title><path class="cls-1" d="M40.52,81.4v-.65a1.06,1.06,0,0,0-.13-.58,1.36,1.36,0,0,0-.79-.79,1.06,1.06,0,0,0-.58-.13l-.4,0a1.49,1.49,0,0,0-.66.39l-.23.3a1.48,1.48,0,0,0-.21.76v.65a1.15,1.15,0,0,0,.13.58,1.36,1.36,0,0,0,.79.79,1.15,1.15,0,0,0,.58.13l.4-.05a1.59,1.59,0,0,0,.66-.39l.24-.3a1.57,1.57,0,0,0,.2-.76Z"/><line class="cls-2" x1="36" x2="36" y2="200"/><line class="cls-2" x1="73" y1="34" x2="1" y2="34"/><path class="cls-2" d="M59,188s129,11,129-54C188,68,39,78,39,78"/></svg>