<svg id="レイヤー_1" data-name="レイヤー 1" xmlns="http://www.w3.org/2000/svg" viewBox="0 0 200 200"><defs><style>.cls-1{fill:#beced3;}.cls-2{fill:none;stroke:#beced3;stroke-miterlimit:10;stroke-width:20px;}</style></defs><path class="cls-1" d="M143.5,20a35,35,0,1,1-35,35,35,35,0,0,1,35-35m0-20a55,55,0,1,0,55,55,55,55,0,0,0-55-55Z"/><path class="cls-1" d="M56.5,109a35,35,0,1,1-35,35,35,35,0,0,1,35-35m0-20a55,55,0,1,0,55,55,55,55,0,0,0-55-55Z"/><line class="cls-2" x1="117" y1="82.5" x2="83.5" y2="116"/></svg>